<?xml version="1.0" standalone="no"?>
<!DOCTYPE svg PUBLIC "-//W3C//DTD SVG 20010904//EN"
 "http://www.w3.org/TR/2001/REC-SVG-20010904/DTD/svg10.dtd">
<svg version="1.0" xmlns="http://www.w3.org/2000/svg"
 width="210.000000pt" height="210.000000pt" viewBox="0 0 210.000000 210.000000"
 preserveAspectRatio="xMidYMid meet">
<metadata>
Created by potrace 1.14, written by Peter Selinger 2001-2017
</metadata>
<g transform="translate(0.000000,210.000000) scale(0.100000,-0.100000)"
fill="#000000" stroke="none">
<path d="M1535 1933 c-38 -8 -106 -32 -150 -53 -77 -36 -119 -62 -347 -214
-145 -97 -246 -155 -405 -235 -139 -69 -219 -99 -260 -95 -13 1 -30 2 -38 3
-20 1 -35 41 -24 63 12 22 47 33 63 19 15 -13 36 4 36 30 0 21 -58 49 -103 49
-61 0 -117 -63 -117 -133 0 -67 84 -146 154 -145 98 0 177 40 506 257 177 116
171 113 291 172 274 137 482 151 582 40 49 -54 71 -127 64 -212 -15 -177 -135
-267 -314 -235 -36 6 -44 5 -50 -10 -11 -29 24 -44 107 -44 172 0 319 89 390
234 54 111 61 220 21 327 -59 157 -207 224 -406 182z"/>
<path d="M953 1463 l-73 -44 5 -97 c16 -371 28 -730 27 -824 -2 -132 -24 -211
-75 -266 -38 -39 -74 -42 -115 -7 -35 30 -63 32 -85 7 -45 -49 -2 -94 90 -94
102 0 162 42 208 147 38 85 50 166 60 390 3 77 8 160 10 185 2 25 7 119 11
209 3 90 7 175 9 190 5 39 8 242 4 245 -2 2 -37 -17 -76 -41z"/>
</g>
</svg>
